# xmcd
#
# Track frame offsets:
#	150
#	15202
#	33165
#	51385
#	67812
#	84487
#	101130
#	124212
#	141107
#	160045
#	176345
#
# Disc length: 2612 seconds
#
# Revision: 5
# Processed by: cddbd v1.5.2PL0 Copyright (c) Steve Scherf et al.
# Submitted via: EasyCDDAExtractor 15.3.0.1
#
DISCID=820a320b
DTITLE=Alejandra Guzman - Libre
DYEAR=1993
DGENRE=Latin
TTITLE0=Mala Hierba
TTITLE1=Dime Adios
TTITLE2=Mirala, Miralo
TTITLE3=Soy
TTITLE4=Calles De Fuego
TTITLE5=Ruge El Corazon
TTITLE6=Angeles Caidos
TTITLE7=Hey Tu
TTITLE8=Libre
TTITLE9=Cuenta Conmigo
TTITLE10=Te Esperaba (Bonus Track)
EXTD=YEAR: 1993 ID3G: 17
EXTT0=
EXTT1=
EXTT2=
EXTT3=
EXTT4=
EXTT5=
EXTT6=
EXTT7=
EXTT8=
EXTT9=
EXTT10=
PLAYORDER=
